<svg width="100" height="100" viewBox="0 0 100 100" fill="none" xmlns="http://www.w3.org/2000/svg" style="width: 200px; height: 200px;"><style>
     .line-plane3 {animation: line-plane3-fly 3s infinite ease-in-out;}
     @keyframes line-plane3-fly{
         0% { transform: translate3d(0, 200px, 0);}
         30% {transform: translate3d(0, -4px, 0);}
         40% {transform: translate3d(0, 0, 0);}
         50% {transform: translate3d(0, -4px, 0);}
         70% {transform: translate3d(0, 0, 0);}
         100% {transform: translate3d(0, -240px, 0);}
     }
     @media (prefers-reduced-motion: reduce) {
         .line-plane3 {
             animation: none;
         }
     }
    </style><path class="line-plane3 stroke1 fill1" d="M54.25 15.25L54.25 15.2508L54.25 15.2515L54.25 15.2525L54.25 15.2529L54.25 37.1687C54.25 38.1808 54.7602 39.1246 55.607 39.6789L81.2977 56.4945C81.5799 56.6793 81.75 56.9939 81.75 57.3312L81.75 62.3466L58.2296 54.2213C56.2811 53.5482 54.25 54.9955 54.25 57.0569L54.25 76.8132C54.25 77.7036 54.6455 78.5479 55.3294 79.1179L62.8902 85.4185C63.1182 85.6085 63.25 85.89 63.25 86.1867L63.25 89.3474L50.728 85.0294C50.0943 84.8109 49.4057 84.8109 48.772 85.0294L36.25 89.3474L36.25 86.2192C36.25 85.9132 36.3901 85.624 36.6304 85.4343L44.6089 79.1354C45.3296 78.5665 45.75 77.6989 45.75 76.7808L45.75 57.0405C45.75 54.9861 43.7316 53.5395 41.7861 54.1996L17.75 62.3547L17.75 57.3419C17.75 57.0016 17.923 56.6847 18.2092 56.5007L44.3723 39.6816C45.2309 39.1296 45.75 38.1789 45.75 37.1581L45.75 15.3332C45.75 15.2521 45.7467 15.1789 45.7438 15.1197C45.7284 14.8097 45.7084 13.5202 46.2276 12.3467C46.4802 11.7757 46.8464 11.2645 47.3757 10.8934C47.8983 10.5271 48.6469 10.25 49.75 10.25C50.9312 10.25 51.7526 10.568 52.3415 10.9962C52.9411 11.4323 53.3607 12.028 53.6534 12.6667C53.947 13.3071 54.0987 13.9608 54.1755 14.4635C54.2136 14.7124 54.2322 14.9178 54.2414 15.0575C54.246 15.1272 54.2481 15.18 54.2491 15.2132C54.2494 15.2223 54.2496 15.23 54.2497 15.2361C54.2498 15.2409 54.2499 15.2448 54.2499 15.2476L54.25 15.25Z" fill="#fff" stroke="#000" stroke-width="2px" style="animation-duration: 3s;"></path></svg>